<svg xmlns="http://www.w3.org/2000/svg" width="28" height="28" viewBox="0 0 28 28">
  <g id="ic_menu_community" transform="translate(-244 -832)">
    <rect id="사각형_44" data-name="사각형 44" width="28" height="28" transform="translate(244 832)" fill="rgba(255,255,255,0)"/>
    <g id="그룹_46" data-name="그룹 46" transform="translate(-2516 -30)">
      <path id="quiz_1_" data-name="quiz (1)" d="M11.333,3h1.333a8.024,8.024,0,0,1,7.78,6.207,8.22,8.22,0,0,1,.22,1.893,8.051,8.051,0,0,1-8,8.1h-8A2.684,2.684,0,0,1,2,16.5V12.45A9.392,9.392,0,0,1,11.333,3Zm4,21.6A7.967,7.967,0,0,1,8.68,21h3.986a9.851,9.851,0,0,0,9.8-9.9q0-.339-.022-.672A9.476,9.476,0,0,1,26,17.85V21.9a2.684,2.684,0,0,1-2.667,2.7Z" transform="translate(2760 862.422)" fill="#b1b1b1" fill-rule="evenodd"/>
      <rect id="사각형_39" data-name="사각형 39" width="7" height="1" rx="0.5" transform="translate(2768 871)" fill="#fff"/>
      <rect id="사각형_40" data-name="사각형 40" width="7" height="1" rx="0.5" transform="translate(2768 875)" fill="#fff"/>
    </g>
  </g>
</svg>
