<svg xmlns="http://www.w3.org/2000/svg" width="28" height="28" viewBox="0 0 28 28">
  <g id="ic_menu_ingredient" transform="translate(-94 -832)">
    <rect id="사각형_42" data-name="사각형 42" width="28" height="28" transform="translate(94 832)" fill="rgba(255,255,255,0)"/>
    <g id="XMLID_95_" transform="translate(96 832.95)">
      <path id="XMLID_98_" d="M9.711,303.273q-.153.013-.306.013a3.607,3.607,0,0,1-.816-.1l-6.148,6.148a.772.772,0,0,0,0,1.092l1.591,1.591a.772.772,0,0,0,1.092,0l7.389-7.387-1.369-1.477Z" transform="translate(-2.107 -287.246)" fill="#b1b1b1"/>
      <path id="XMLID_97_" d="M260.5,6.178a.738.738,0,0,0-1.044,0l-3.984,3.984A.964.964,0,1,1,254.1,8.8l3.964-3.964a.768.768,0,0,0-1.086-1.086L253.02,7.712a.964.964,0,0,1-1.364-1.363l3.983-3.984a.739.739,0,0,0-1.046-1.046L250.112,5.8a4.142,4.142,0,0,0-1.069,3.969l3,3a4.143,4.143,0,0,0,3.967-1.07L260.5,7.224A.739.739,0,0,0,260.5,6.178Z" transform="translate(-236.714)" fill="#b1b1b1"/>
      <path id="XMLID_96_" d="M2.014,9.175a.813.813,0,0,0-.575-.238.825.825,0,0,0-.136.011.813.813,0,0,0-.6.448,7.081,7.081,0,0,0,1.367,8.091L5.887,21.3a2,2,0,0,0,1.412.585q.085,0,.169-.007l2.213-.189L19.334,32.1a.814.814,0,0,0,.581.26h.014a.818.818,0,0,0,.577-.238l1.653-1.653a.814.814,0,0,0,0-1.15Z" transform="translate(0 -7.449)" fill="#b1b1b1"/>
    </g>
  </g>
</svg>
