<svg xmlns="http://www.w3.org/2000/svg" width="16" height="16" viewBox="0 0 16 16">
  <g id="ic_date_end" transform="translate(-72 -151)">
    <circle id="타원_194" data-name="타원 194" cx="8" cy="8" r="8" transform="translate(72 151)" fill="#ff5050"/>
    <path id="패스_2617" data-name="패스 2617" d="M-1.009-2.393a.477.477,0,0,1-.075.266.674.674,0,0,1-.186.191.789.789,0,0,1-.241.111.9.9,0,0,1-.231.035.922.922,0,0,1-.528-.146A.535.535,0,0,1-2.5-2.393l-.151-4.392a.762.762,0,0,1,.206-.558.907.907,0,0,1,.7-.236.9.9,0,0,1,.678.236.78.78,0,0,1,.226.558ZM-2.728-.473a.749.749,0,0,0,.286.638,1.143,1.143,0,0,0,.709.216A1.165,1.165,0,0,0-1.019.165.744.744,0,0,0-.728-.473a.758.758,0,0,0-.291-.643,1.146,1.146,0,0,0-.714-.221,1.125,1.125,0,0,0-.709.221A.763.763,0,0,0-2.728-.473Z" transform="translate(81.728 163)" fill="#fff"/>
  </g>
</svg>
