<svg xmlns="http://www.w3.org/2000/svg" width="28" height="28" viewBox="0 0 28 28">
  <g id="ic_menu_search" transform="translate(-169 -832)">
    <rect id="사각형_43" data-name="사각형 43" width="28" height="28" transform="translate(169 832)" fill="rgba(255,255,255,0)"/>
    <path id="zoom" d="M2.052,3.25a.8.8,0,0,0,0,1.6H15.959a.8.8,0,0,0,0-1.6ZM17.029,9.134a5.616,5.616,0,1,0,5.616,5.616A5.616,5.616,0,0,0,17.029,9.134ZM9.808,14.75a7.221,7.221,0,1,1,12.863,4.507L24.015,20.6a.8.8,0,1,1-1.135,1.135l-1.344-1.344A7.221,7.221,0,0,1,9.808,14.75Zm-7.756-.8a.8.8,0,1,0,0,1.6H7.4a.8.8,0,0,0,0-1.6ZM1.25,9.4a.8.8,0,0,1,.8-.8H7.4a.8.8,0,0,1,0,1.6H2.052A.8.8,0,0,1,1.25,9.4Z" transform="translate(169.75 833.612)" fill="#b1b1b1" fill-rule="evenodd"/>
  </g>
</svg>
